<svg width="359" height="269" viewBox="0 0 359 269" fill="none" xmlns="http://www.w3.org/2000/svg">
<rect x="137" y="90" width="84" height="19" rx="9.5" transform="rotate(90 137 90)" fill="#094B7C" fill-opacity="0.75"/>
<rect x="98" y="90" width="84" height="19" rx="9.5" transform="rotate(90 98 90)" fill="#094B7C" fill-opacity="0.75"/>
<rect x="35.2175" y="106" width="55" height="19" rx="9.5" transform="rotate(90 35.2175 106)" fill="#094B7C" fill-opacity="0.75"/>
<rect x="76.2175" y="174" width="46" height="19" rx="9.5" transform="rotate(-180 76.2175 174)" fill="#094B7C" fill-opacity="0.75"/>
<rect x="38" y="176.218" width="36.7696" height="19" rx="9.5" transform="rotate(-135 38 176.218)" fill="#094B7C" fill-opacity="0.75"/>
<rect x="76.2175" y="110" width="46" height="19" rx="9.5" transform="rotate(-180 76.2175 110)" fill="#094B7C" fill-opacity="0.75"/>
<rect x="12.2175" y="114" width="36.7696" height="19" rx="9.5" transform="rotate(-45 12.2175 114)" fill="#094B7C" fill-opacity="0.75"/>
<rect x="249" y="90" width="84" height="19" rx="9.5" transform="rotate(90 249 90)" fill="#094B7C" fill-opacity="0.75"/>
<rect x="325" y="90" width="84" height="19" rx="9.5" transform="rotate(90 325 90)" fill="#094B7C" fill-opacity="0.75"/>
<rect x="185.562" y="124.098" width="60.2154" height="19" rx="9.5" transform="rotate(120 185.562 124.098)" fill="#094B7C" fill-opacity="0.75"/>
<rect x="193" y="156" width="35" height="21" rx="10.5" transform="rotate(-180 193 156)" fill="#094B7C" fill-opacity="0.75"/>
<rect x="137" y="145" width="39" height="21" rx="10.5" transform="rotate(-180 137 145)" fill="#094B7C" fill-opacity="0.75"/>
<rect x="185.591" y="89.0401" width="89.7272" height="19" rx="9.5" transform="rotate(60 185.591 89.0401)" fill="#094B7C" fill-opacity="0.75"/>
<rect x="272.783" y="177.218" width="59.0894" height="19" rx="9.5" transform="rotate(-135 272.783 177.218)" fill="#094B7C" fill-opacity="0.75"/>
<rect x="278.11" y="109" width="47.1099" height="19" rx="9.5" transform="rotate(180 278.11 109)" fill="#094B7C" fill-opacity="0.75"/>
<rect x="283" y="92" width="49" height="19" rx="9.5" transform="rotate(90 283 92)" fill="#094B7C" fill-opacity="0.75"/>
<rect x="278" y="143" width="46" height="19" rx="9.5" transform="rotate(-180 278 143)" fill="#094B7C" fill-opacity="0.75"/>
<rect x="347.355" y="110" width="62.3553" height="19" rx="9.5" transform="rotate(-180 347.355 110)" fill="#094B7C" fill-opacity="0.75"/>
<rect x="121" y="3.99997" width="84" height="19" rx="9.5" transform="rotate(90 121 3.99997)" fill="#094B7C" fill-opacity="0.75"/>
<rect x="180" y="3.99997" width="84" height="19" rx="9.5" transform="rotate(90 180 3.99997)" fill="#094B7C" fill-opacity="0.75"/>
<rect x="229" y="34" width="54" height="19" rx="9.5" transform="rotate(90 229 34)" fill="#094B7C" fill-opacity="0.75"/>
<rect x="183.619" y="13.435" width="62.3553" height="19" rx="9.5" transform="rotate(135 183.619 13.435)" fill="#094B7C" fill-opacity="0.75"/>
<rect x="126.282" y="41.7175" width="39.9975" height="19" rx="9.5" transform="rotate(-135 126.282 41.7175)" fill="#094B7C" fill-opacity="0.75"/>
<rect x="217.218" y="54.6525" width="52.6335" height="19" rx="9.5" transform="rotate(-135 217.218 54.6525)" fill="#094B7C" fill-opacity="0.75"/>
<rect x="223.609" y="27.6088" width="33.3878" height="19" rx="9.5" transform="rotate(-45 223.609 27.6088)" fill="#094B7C" fill-opacity="0.75"/>
<path d="M58.8841 208C58.3561 208 57.9121 207.82 57.5521 207.46C57.1921 207.1 57.0121 206.656 57.0121 206.128V181.756C57.0121 181.204 57.1921 180.76 57.5521 180.424C57.9121 180.064 58.3561 179.884 58.8841 179.884H66.0841C67.8841 179.884 69.4801 180.28 70.8721 181.072C72.2641 181.864 73.3441 182.968 74.1121 184.384C74.9041 185.776 75.3001 187.384 75.3001 189.208C75.3001 190.96 74.9041 192.52 74.1121 193.888C73.3441 195.256 72.2641 196.324 70.8721 197.092C69.4801 197.86 67.8841 198.244 66.0841 198.244H60.7561V206.128C60.7561 206.656 60.5761 207.1 60.2161 207.46C59.8801 207.82 59.4361 208 58.8841 208ZM60.7561 194.788H66.0841C67.7161 194.788 69.0601 194.272 70.1161 193.24C71.1721 192.184 71.7001 190.84 71.7001 189.208C71.7001 188.056 71.4601 187.048 70.9801 186.184C70.5001 185.296 69.8401 184.6 69.0001 184.096C68.1601 183.592 67.1881 183.34 66.0841 183.34H60.7561V194.788ZM87.6307 208.144C85.6387 208.144 83.8627 207.724 82.3027 206.884C80.7667 206.02 79.5547 204.844 78.6667 203.356C77.8027 201.844 77.3707 200.116 77.3707 198.172C77.3707 196.204 77.7787 194.476 78.5947 192.988C79.4347 191.476 80.5867 190.3 82.0507 189.46C83.5147 188.596 85.1947 188.164 87.0907 188.164C88.9627 188.164 90.5707 188.584 91.9147 189.424C93.2587 190.24 94.2787 191.38 94.9747 192.844C95.6947 194.284 96.0547 195.952 96.0547 197.848C96.0547 198.304 95.8987 198.688 95.5867 199C95.2747 199.288 94.8787 199.432 94.3987 199.432H80.7187C80.9827 201.088 81.7387 202.444 82.9867 203.5C84.2587 204.532 85.8067 205.048 87.6307 205.048C88.3747 205.048 89.1307 204.916 89.8987 204.652C90.6907 204.364 91.3267 204.04 91.8067 203.68C92.1667 203.416 92.5507 203.284 92.9587 203.284C93.3907 203.26 93.7627 203.38 94.0747 203.644C94.4827 204.004 94.6987 204.4 94.7227 204.832C94.7467 205.264 94.5547 205.636 94.1467 205.948C93.3307 206.596 92.3107 207.124 91.0867 207.532C89.8867 207.94 88.7347 208.144 87.6307 208.144ZM87.0907 191.26C85.3147 191.26 83.8867 191.752 82.8067 192.736C81.7267 193.72 81.0427 194.992 80.7547 196.552H92.7427C92.5267 195.016 91.9387 193.756 90.9787 192.772C90.0187 191.764 88.7227 191.26 87.0907 191.26ZM102.538 208C101.338 208 100.738 207.4 100.738 206.2V190.108C100.738 188.908 101.338 188.308 102.538 188.308C103.738 188.308 104.338 188.908 104.338 190.108V190.792C105.058 189.952 105.934 189.292 106.966 188.812C108.022 188.332 109.162 188.092 110.386 188.092C111.826 188.092 112.894 188.332 113.59 188.812C114.31 189.268 114.586 189.82 114.418 190.468C114.298 190.972 114.058 191.308 113.698 191.476C113.338 191.62 112.918 191.644 112.438 191.548C110.902 191.236 109.522 191.212 108.298 191.476C107.074 191.74 106.102 192.232 105.382 192.952C104.686 193.672 104.338 194.584 104.338 195.688V206.2C104.338 207.4 103.738 208 102.538 208ZM125.41 208.144C123.73 208.144 122.17 207.892 120.73 207.388C119.314 206.86 118.21 206.2 117.418 205.408C117.058 205.024 116.902 204.592 116.95 204.112C117.022 203.608 117.262 203.2 117.67 202.888C118.15 202.504 118.618 202.348 119.074 202.42C119.554 202.468 119.962 202.672 120.298 203.032C120.706 203.488 121.354 203.92 122.242 204.328C123.154 204.712 124.162 204.904 125.266 204.904C126.658 204.904 127.714 204.676 128.434 204.22C129.178 203.764 129.562 203.176 129.586 202.456C129.61 201.736 129.262 201.112 128.542 200.584C127.846 200.056 126.562 199.624 124.69 199.288C122.266 198.808 120.502 198.088 119.398 197.128C118.318 196.168 117.778 194.992 117.778 193.6C117.778 192.376 118.138 191.368 118.858 190.576C119.578 189.76 120.502 189.16 121.63 188.776C122.758 188.368 123.934 188.164 125.158 188.164C126.742 188.164 128.146 188.416 129.37 188.92C130.594 189.424 131.566 190.12 132.286 191.008C132.622 191.392 132.778 191.8 132.754 192.232C132.73 192.64 132.526 192.988 132.142 193.276C131.758 193.54 131.302 193.624 130.774 193.528C130.246 193.432 129.802 193.216 129.442 192.88C128.842 192.304 128.194 191.908 127.498 191.692C126.802 191.476 125.998 191.368 125.086 191.368C124.03 191.368 123.13 191.548 122.386 191.908C121.666 192.268 121.306 192.796 121.306 193.492C121.306 193.924 121.414 194.32 121.63 194.68C121.87 195.016 122.326 195.328 122.998 195.616C123.67 195.88 124.654 196.144 125.95 196.408C128.662 196.936 130.534 197.692 131.566 198.676C132.622 199.636 133.15 200.824 133.15 202.24C133.15 203.344 132.85 204.34 132.25 205.228C131.674 206.116 130.81 206.824 129.658 207.352C128.53 207.88 127.114 208.144 125.41 208.144ZM146.721 208.144C144.777 208.144 143.061 207.724 141.573 206.884C140.085 206.02 138.909 204.844 138.045 203.356C137.205 201.844 136.785 200.116 136.785 198.172C136.785 196.204 137.205 194.476 138.045 192.988C138.909 191.476 140.085 190.3 141.573 189.46C143.061 188.596 144.777 188.164 146.721 188.164C148.641 188.164 150.345 188.596 151.833 189.46C153.321 190.3 154.485 191.476 155.325 192.988C156.189 194.476 156.621 196.204 156.621 198.172C156.621 200.116 156.201 201.844 155.361 203.356C154.521 204.844 153.357 206.02 151.869 206.884C150.381 207.724 148.665 208.144 146.721 208.144ZM146.721 204.904C147.969 204.904 149.073 204.616 150.033 204.04C150.993 203.464 151.737 202.672 152.265 201.664C152.817 200.656 153.093 199.492 153.093 198.172C153.093 196.852 152.817 195.688 152.265 194.68C151.737 193.648 150.993 192.844 150.033 192.268C149.073 191.692 147.969 191.404 146.721 191.404C145.473 191.404 144.369 191.692 143.409 192.268C142.449 192.844 141.693 193.648 141.141 194.68C140.589 195.688 140.313 196.852 140.313 198.172C140.313 199.492 140.589 200.656 141.141 201.664C141.693 202.672 142.449 203.464 143.409 204.04C144.369 204.616 145.473 204.904 146.721 204.904ZM163.922 208.036C163.394 208.036 162.95 207.868 162.59 207.532C162.254 207.172 162.086 206.728 162.086 206.2V190.144C162.086 189.592 162.254 189.148 162.59 188.812C162.95 188.476 163.394 188.308 163.922 188.308C164.474 188.308 164.918 188.476 165.254 188.812C165.59 189.148 165.758 189.592 165.758 190.144V190.54C166.502 189.796 167.402 189.208 168.458 188.776C169.514 188.344 170.654 188.128 171.878 188.128C173.534 188.128 175.01 188.488 176.306 189.208C177.626 189.904 178.658 190.936 179.402 192.304C180.17 193.672 180.554 195.352 180.554 197.344V206.2C180.554 206.728 180.374 207.172 180.014 207.532C179.678 207.868 179.246 208.036 178.718 208.036C178.19 208.036 177.746 207.868 177.386 207.532C177.05 207.172 176.882 206.728 176.882 206.2V197.344C176.882 195.304 176.33 193.816 175.226 192.88C174.146 191.92 172.79 191.44 171.158 191.44C170.15 191.44 169.238 191.644 168.422 192.052C167.606 192.46 166.958 193.012 166.478 193.708C165.998 194.38 165.758 195.16 165.758 196.048V206.2C165.758 206.728 165.59 207.172 165.254 207.532C164.918 207.868 164.474 208.036 163.922 208.036ZM194.833 208.144C193.081 208.144 191.509 207.712 190.117 206.848C188.725 205.96 187.621 204.772 186.805 203.284C186.013 201.772 185.617 200.068 185.617 198.172C185.617 196.276 186.049 194.572 186.913 193.06C187.801 191.548 188.989 190.36 190.477 189.496C191.989 188.608 193.681 188.164 195.553 188.164C197.425 188.164 199.105 188.608 200.593 189.496C202.081 190.36 203.257 191.548 204.121 193.06C205.009 194.572 205.453 196.276 205.453 198.172V206.2C205.453 206.728 205.273 207.172 204.913 207.532C204.577 207.868 204.145 208.036 203.617 208.036C203.089 208.036 202.645 207.868 202.285 207.532C201.949 207.172 201.781 206.728 201.781 206.2V204.868C200.941 205.876 199.921 206.68 198.721 207.28C197.545 207.856 196.249 208.144 194.833 208.144ZM195.553 204.904C196.777 204.904 197.869 204.616 198.829 204.04C199.789 203.44 200.545 202.636 201.097 201.628C201.649 200.596 201.925 199.444 201.925 198.172C201.925 196.876 201.649 195.724 201.097 194.716C200.545 193.684 199.789 192.88 198.829 192.304C197.869 191.704 196.777 191.404 195.553 191.404C194.353 191.404 193.261 191.704 192.277 192.304C191.317 192.88 190.549 193.684 189.973 194.716C189.421 195.724 189.145 196.876 189.145 198.172C189.145 199.444 189.421 200.596 189.973 201.628C190.549 202.636 191.317 203.44 192.277 204.04C193.261 204.616 194.353 204.904 195.553 204.904ZM215.598 208C214.542 208 213.606 207.712 212.79 207.136C211.974 206.56 211.338 205.78 210.882 204.796C210.426 203.788 210.198 202.636 210.198 201.34V181.684C210.198 181.156 210.366 180.724 210.702 180.388C211.038 180.052 211.47 179.884 211.998 179.884C212.526 179.884 212.958 180.052 213.294 180.388C213.63 180.724 213.798 181.156 213.798 181.684V201.34C213.798 202.228 213.966 202.96 214.302 203.536C214.638 204.112 215.07 204.4 215.598 204.4H216.498C216.978 204.4 217.362 204.568 217.65 204.904C217.962 205.24 218.118 205.672 218.118 206.2C218.118 206.728 217.89 207.16 217.434 207.496C216.978 207.832 216.39 208 215.67 208H215.598ZM223.907 208C223.379 208 222.935 207.832 222.575 207.496C222.239 207.136 222.071 206.692 222.071 206.164V190.144C222.071 189.592 222.239 189.148 222.575 188.812C222.935 188.476 223.379 188.308 223.907 188.308C224.459 188.308 224.903 188.476 225.239 188.812C225.575 189.148 225.743 189.592 225.743 190.144V206.164C225.743 206.692 225.575 207.136 225.239 207.496C224.903 207.832 224.459 208 223.907 208ZM223.907 185.104C223.259 185.104 222.695 184.876 222.215 184.42C221.759 183.94 221.531 183.376 221.531 182.728C221.531 182.08 221.759 181.528 222.215 181.072C222.695 180.592 223.259 180.352 223.907 180.352C224.555 180.352 225.107 180.592 225.563 181.072C226.043 181.528 226.283 182.08 226.283 182.728C226.283 183.376 226.043 183.94 225.563 184.42C225.107 184.876 224.555 185.104 223.907 185.104ZM233.366 208C232.238 208 231.674 207.436 231.674 206.308C231.674 205.828 231.782 205.444 231.998 205.156L242.186 191.692H233.006C231.878 191.692 231.314 191.128 231.314 190C231.314 188.872 231.878 188.308 233.006 188.308H245.282C246.41 188.308 246.974 188.872 246.974 190C246.974 190.48 246.866 190.864 246.65 191.152L236.498 204.616H245.642C246.77 204.616 247.334 205.18 247.334 206.308C247.334 207.436 246.77 208 245.642 208H233.366ZM260.564 208.144C258.572 208.144 256.796 207.724 255.236 206.884C253.7 206.02 252.488 204.844 251.6 203.356C250.736 201.844 250.304 200.116 250.304 198.172C250.304 196.204 250.712 194.476 251.528 192.988C252.368 191.476 253.52 190.3 254.984 189.46C256.448 188.596 258.128 188.164 260.024 188.164C261.896 188.164 263.504 188.584 264.848 189.424C266.192 190.24 267.212 191.38 267.908 192.844C268.628 194.284 268.988 195.952 268.988 197.848C268.988 198.304 268.832 198.688 268.52 199C268.208 199.288 267.812 199.432 267.332 199.432H253.652C253.916 201.088 254.672 202.444 255.92 203.5C257.192 204.532 258.74 205.048 260.564 205.048C261.308 205.048 262.064 204.916 262.832 204.652C263.624 204.364 264.26 204.04 264.74 203.68C265.1 203.416 265.484 203.284 265.892 203.284C266.324 203.26 266.696 203.38 267.008 203.644C267.416 204.004 267.632 204.4 267.656 204.832C267.68 205.264 267.488 205.636 267.08 205.948C266.264 206.596 265.244 207.124 264.02 207.532C262.82 207.94 261.668 208.144 260.564 208.144ZM260.024 191.26C258.248 191.26 256.82 191.752 255.74 192.736C254.66 193.72 253.976 194.992 253.688 196.552H265.676C265.46 195.016 264.872 193.756 263.912 192.772C262.952 191.764 261.656 191.26 260.024 191.26ZM281.897 208.144C280.025 208.144 278.333 207.712 276.821 206.848C275.333 205.96 274.145 204.76 273.257 203.248C272.393 201.736 271.961 200.032 271.961 198.136C271.961 196.24 272.357 194.548 273.149 193.06C273.965 191.548 275.069 190.36 276.461 189.496C277.853 188.608 279.425 188.164 281.177 188.164C282.593 188.164 283.901 188.464 285.101 189.064C286.301 189.64 287.309 190.432 288.125 191.44V181.72C288.125 181.168 288.293 180.724 288.629 180.388C288.989 180.052 289.433 179.884 289.961 179.884C290.513 179.884 290.957 180.052 291.293 180.388C291.629 180.724 291.797 181.168 291.797 181.72V198.136C291.797 200.032 291.353 201.736 290.465 203.248C289.601 204.76 288.425 205.96 286.937 206.848C285.449 207.712 283.769 208.144 281.897 208.144ZM281.897 204.904C283.121 204.904 284.213 204.616 285.173 204.04C286.133 203.44 286.889 202.624 287.441 201.592C287.993 200.56 288.269 199.408 288.269 198.136C288.269 196.84 287.993 195.688 287.441 194.68C286.889 193.672 286.133 192.88 285.173 192.304C284.213 191.704 283.121 191.404 281.897 191.404C280.697 191.404 279.605 191.704 278.621 192.304C277.661 192.88 276.893 193.672 276.317 194.68C275.765 195.688 275.489 196.84 275.489 198.136C275.489 199.408 275.765 200.56 276.317 201.592C276.893 202.624 277.661 203.44 278.621 204.04C279.605 204.616 280.697 204.904 281.897 204.904ZM29.1243 248C28.5963 248 28.1523 247.82 27.7923 247.46C27.4323 247.1 27.2523 246.656 27.2523 246.128V221.756C27.2523 221.204 27.4323 220.76 27.7923 220.424C28.1523 220.064 28.5963 219.884 29.1243 219.884C29.8443 219.884 30.3963 220.22 30.7803 220.892L41.4723 242.312L51.8763 220.892C52.2603 220.22 52.8123 219.884 53.5323 219.884C54.0603 219.884 54.5043 220.064 54.8643 220.424C55.2243 220.76 55.4043 221.204 55.4043 221.756V246.128C55.4043 246.656 55.2123 247.1 54.8283 247.46C54.4683 247.82 54.0363 248 53.5323 248C53.0043 248 52.5603 247.82 52.2003 247.46C51.8403 247.1 51.6603 246.656 51.6603 246.128V228.236L42.9483 245.984C42.5403 246.608 42.0003 246.92 41.3283 246.92C40.5363 246.92 39.9603 246.548 39.6003 245.804L30.9963 228.56V246.128C30.9963 246.656 30.8163 247.1 30.4563 247.46C30.0963 247.82 29.6523 248 29.1243 248ZM71.5115 248.144C69.5195 248.144 67.7435 247.724 66.1835 246.884C64.6475 246.02 63.4355 244.844 62.5475 243.356C61.6835 241.844 61.2515 240.116 61.2515 238.172C61.2515 236.204 61.6595 234.476 62.4755 232.988C63.3155 231.476 64.4675 230.3 65.9315 229.46C67.3955 228.596 69.0755 228.164 70.9715 228.164C72.8435 228.164 74.4515 228.584 75.7955 229.424C77.1395 230.24 78.1595 231.38 78.8555 232.844C79.5755 234.284 79.9355 235.952 79.9355 237.848C79.9355 238.304 79.7795 238.688 79.4675 239C79.1555 239.288 78.7595 239.432 78.2795 239.432H64.5995C64.8635 241.088 65.6195 242.444 66.8675 243.5C68.1395 244.532 69.6875 245.048 71.5115 245.048C72.2555 245.048 73.0115 244.916 73.7795 244.652C74.5715 244.364 75.2075 244.04 75.6875 243.68C76.0475 243.416 76.4315 243.284 76.8395 243.284C77.2715 243.26 77.6435 243.38 77.9555 243.644C78.3635 244.004 78.5795 244.4 78.6035 244.832C78.6275 245.264 78.4355 245.636 78.0275 245.948C77.2115 246.596 76.1915 247.124 74.9675 247.532C73.7675 247.94 72.6155 248.144 71.5115 248.144ZM70.9715 231.26C69.1955 231.26 67.7675 231.752 66.6875 232.736C65.6075 233.72 64.9235 234.992 64.6355 236.552H76.6235C76.4075 235.016 75.8195 233.756 74.8595 232.772C73.8995 231.764 72.6035 231.26 70.9715 231.26ZM92.8438 248.144C90.9718 248.144 89.2798 247.712 87.7678 246.848C86.2798 245.96 85.0918 244.76 84.2038 243.248C83.3398 241.736 82.9078 240.032 82.9078 238.136C82.9078 236.24 83.3038 234.548 84.0958 233.06C84.9118 231.548 86.0158 230.36 87.4078 229.496C88.7998 228.608 90.3718 228.164 92.1238 228.164C93.5398 228.164 94.8478 228.464 96.0478 229.064C97.2478 229.64 98.2558 230.432 99.0718 231.44V221.72C99.0718 221.168 99.2398 220.724 99.5758 220.388C99.9358 220.052 100.38 219.884 100.908 219.884C101.46 219.884 101.904 220.052 102.24 220.388C102.576 220.724 102.744 221.168 102.744 221.72V238.136C102.744 240.032 102.3 241.736 101.412 243.248C100.548 244.76 99.3718 245.96 97.8838 246.848C96.3958 247.712 94.7158 248.144 92.8438 248.144ZM92.8438 244.904C94.0678 244.904 95.1598 244.616 96.1198 244.04C97.0798 243.44 97.8358 242.624 98.3878 241.592C98.9398 240.56 99.2158 239.408 99.2158 238.136C99.2158 236.84 98.9398 235.688 98.3878 234.68C97.8358 233.672 97.0798 232.88 96.1198 232.304C95.1598 231.704 94.0678 231.404 92.8438 231.404C91.6438 231.404 90.5518 231.704 89.5678 232.304C88.6078 232.88 87.8398 233.672 87.2638 234.68C86.7118 235.688 86.4358 236.84 86.4358 238.136C86.4358 239.408 86.7118 240.56 87.2638 241.592C87.8398 242.624 88.6078 243.44 89.5678 244.04C90.5518 244.616 91.6438 244.904 92.8438 244.904ZM111.424 248C110.896 248 110.452 247.832 110.092 247.496C109.756 247.136 109.588 246.692 109.588 246.164V230.144C109.588 229.592 109.756 229.148 110.092 228.812C110.452 228.476 110.896 228.308 111.424 228.308C111.976 228.308 112.42 228.476 112.756 228.812C113.092 229.148 113.26 229.592 113.26 230.144V246.164C113.26 246.692 113.092 247.136 112.756 247.496C112.42 247.832 111.976 248 111.424 248ZM111.424 225.104C110.776 225.104 110.212 224.876 109.732 224.42C109.276 223.94 109.048 223.376 109.048 222.728C109.048 222.08 109.276 221.528 109.732 221.072C110.212 220.592 110.776 220.352 111.424 220.352C112.072 220.352 112.624 220.592 113.08 221.072C113.56 221.528 113.8 222.08 113.8 222.728C113.8 223.376 113.56 223.94 113.08 224.42C112.624 224.876 112.072 225.104 111.424 225.104ZM129.02 248.144C127.1 248.144 125.384 247.712 123.872 246.848C122.384 245.96 121.208 244.772 120.344 243.284C119.504 241.772 119.084 240.068 119.084 238.172C119.084 236.228 119.504 234.5 120.344 232.988C121.184 231.476 122.336 230.3 123.8 229.46C125.264 228.596 126.944 228.164 128.84 228.164C131.672 228.164 134.024 229.244 135.896 231.404C136.232 231.788 136.352 232.184 136.256 232.592C136.16 233 135.896 233.36 135.464 233.672C135.128 233.912 134.756 233.996 134.348 233.924C133.94 233.828 133.568 233.612 133.232 233.276C132.056 232.028 130.592 231.404 128.84 231.404C126.992 231.404 125.492 232.028 124.34 233.276C123.188 234.5 122.612 236.132 122.612 238.172C122.612 239.468 122.876 240.62 123.404 241.628C123.956 242.636 124.712 243.44 125.672 244.04C126.632 244.616 127.748 244.904 129.02 244.904C130.652 244.904 131.972 244.484 132.98 243.644C133.364 243.332 133.76 243.164 134.168 243.14C134.576 243.092 134.936 243.2 135.248 243.464C135.656 243.8 135.884 244.184 135.932 244.616C135.98 245.024 135.836 245.396 135.5 245.732C133.772 247.34 131.612 248.144 129.02 248.144ZM149.921 248.144C148.169 248.144 146.597 247.712 145.205 246.848C143.813 245.96 142.709 244.772 141.893 243.284C141.101 241.772 140.705 240.068 140.705 238.172C140.705 236.276 141.137 234.572 142.001 233.06C142.889 231.548 144.077 230.36 145.565 229.496C147.077 228.608 148.769 228.164 150.641 228.164C152.513 228.164 154.193 228.608 155.681 229.496C157.169 230.36 158.345 231.548 159.209 233.06C160.097 234.572 160.541 236.276 160.541 238.172V246.2C160.541 246.728 160.361 247.172 160.001 247.532C159.665 247.868 159.233 248.036 158.705 248.036C158.177 248.036 157.733 247.868 157.373 247.532C157.037 247.172 156.869 246.728 156.869 246.2V244.868C156.029 245.876 155.009 246.68 153.809 247.28C152.633 247.856 151.337 248.144 149.921 248.144ZM150.641 244.904C151.865 244.904 152.957 244.616 153.917 244.04C154.877 243.44 155.633 242.636 156.185 241.628C156.737 240.596 157.013 239.444 157.013 238.172C157.013 236.876 156.737 235.724 156.185 234.716C155.633 233.684 154.877 232.88 153.917 232.304C152.957 231.704 151.865 231.404 150.641 231.404C149.441 231.404 148.349 231.704 147.365 232.304C146.405 232.88 145.637 233.684 145.061 234.716C144.509 235.724 144.233 236.876 144.233 238.172C144.233 239.444 144.509 240.596 145.061 241.628C145.637 242.636 146.405 243.44 147.365 244.04C148.349 244.616 149.441 244.904 150.641 244.904ZM170.686 248C169.63 248 168.694 247.712 167.878 247.136C167.062 246.56 166.426 245.78 165.97 244.796C165.514 243.788 165.286 242.636 165.286 241.34V221.684C165.286 221.156 165.454 220.724 165.79 220.388C166.126 220.052 166.558 219.884 167.086 219.884C167.614 219.884 168.046 220.052 168.382 220.388C168.718 220.724 168.886 221.156 168.886 221.684V241.34C168.886 242.228 169.054 242.96 169.39 243.536C169.726 244.112 170.158 244.4 170.686 244.4H171.586C172.066 244.4 172.45 244.568 172.738 244.904C173.05 245.24 173.206 245.672 173.206 246.2C173.206 246.728 172.978 247.16 172.522 247.496C172.066 247.832 171.478 248 170.758 248H170.686ZM189.577 248C189.049 248 188.605 247.82 188.245 247.46C187.885 247.1 187.705 246.656 187.705 246.128V221.756C187.705 221.204 187.885 220.76 188.245 220.424C188.605 220.064 189.049 219.884 189.577 219.884H196.057C197.857 219.884 199.453 220.268 200.845 221.036C202.237 221.78 203.317 222.812 204.085 224.132C204.877 225.452 205.273 226.988 205.273 228.74C205.273 230.468 204.841 231.992 203.977 233.312C203.113 234.608 201.937 235.592 200.449 236.264L205.957 245.12C206.389 245.816 206.449 246.476 206.137 247.1C205.825 247.7 205.285 248 204.517 248C203.821 248 203.281 247.7 202.897 247.1L196.705 237.164C196.489 237.164 196.273 237.164 196.057 237.164H191.449V246.128C191.449 246.656 191.269 247.1 190.909 247.46C190.573 247.82 190.129 248 189.577 248ZM191.449 233.708H196.057C197.689 233.708 199.033 233.252 200.089 232.34C201.145 231.404 201.673 230.204 201.673 228.74C201.673 227.156 201.145 225.86 200.089 224.852C199.033 223.844 197.689 223.34 196.057 223.34H191.449V233.708ZM219.344 248.144C217.352 248.144 215.576 247.724 214.016 246.884C212.48 246.02 211.268 244.844 210.38 243.356C209.516 241.844 209.084 240.116 209.084 238.172C209.084 236.204 209.492 234.476 210.308 232.988C211.148 231.476 212.3 230.3 213.764 229.46C215.228 228.596 216.908 228.164 218.804 228.164C220.676 228.164 222.284 228.584 223.628 229.424C224.972 230.24 225.992 231.38 226.688 232.844C227.408 234.284 227.768 235.952 227.768 237.848C227.768 238.304 227.612 238.688 227.3 239C226.988 239.288 226.592 239.432 226.112 239.432H212.432C212.696 241.088 213.452 242.444 214.7 243.5C215.972 244.532 217.52 245.048 219.344 245.048C220.088 245.048 220.844 244.916 221.612 244.652C222.404 244.364 223.04 244.04 223.52 243.68C223.88 243.416 224.264 243.284 224.672 243.284C225.104 243.26 225.476 243.38 225.788 243.644C226.196 244.004 226.412 244.4 226.436 244.832C226.46 245.264 226.268 245.636 225.86 245.948C225.044 246.596 224.024 247.124 222.8 247.532C221.6 247.94 220.448 248.144 219.344 248.144ZM218.804 231.26C217.028 231.26 215.6 231.752 214.52 232.736C213.44 233.72 212.756 234.992 212.468 236.552H224.456C224.24 235.016 223.652 233.756 222.692 232.772C221.732 231.764 220.436 231.26 218.804 231.26ZM240.676 248.144C238.756 248.144 237.04 247.712 235.528 246.848C234.04 245.96 232.864 244.772 232 243.284C231.16 241.772 230.74 240.068 230.74 238.172C230.74 236.228 231.16 234.5 232 232.988C232.84 231.476 233.992 230.3 235.456 229.46C236.92 228.596 238.6 228.164 240.496 228.164C243.328 228.164 245.68 229.244 247.552 231.404C247.888 231.788 248.008 232.184 247.912 232.592C247.816 233 247.552 233.36 247.12 233.672C246.784 233.912 246.412 233.996 246.004 233.924C245.596 233.828 245.224 233.612 244.888 233.276C243.712 232.028 242.248 231.404 240.496 231.404C238.648 231.404 237.148 232.028 235.996 233.276C234.844 234.5 234.268 236.132 234.268 238.172C234.268 239.468 234.532 240.62 235.06 241.628C235.612 242.636 236.368 243.44 237.328 244.04C238.288 244.616 239.404 244.904 240.676 244.904C242.308 244.904 243.628 244.484 244.636 243.644C245.02 243.332 245.416 243.164 245.824 243.14C246.232 243.092 246.592 243.2 246.904 243.464C247.312 243.8 247.54 244.184 247.588 244.616C247.636 245.024 247.492 245.396 247.156 245.732C245.428 247.34 243.268 248.144 240.676 248.144ZM262.297 248.144C260.353 248.144 258.637 247.724 257.149 246.884C255.661 246.02 254.485 244.844 253.621 243.356C252.781 241.844 252.361 240.116 252.361 238.172C252.361 236.204 252.781 234.476 253.621 232.988C254.485 231.476 255.661 230.3 257.149 229.46C258.637 228.596 260.353 228.164 262.297 228.164C264.217 228.164 265.921 228.596 267.409 229.46C268.897 230.3 270.061 231.476 270.901 232.988C271.765 234.476 272.197 236.204 272.197 238.172C272.197 240.116 271.777 241.844 270.937 243.356C270.097 244.844 268.933 246.02 267.445 246.884C265.957 247.724 264.241 248.144 262.297 248.144ZM262.297 244.904C263.545 244.904 264.649 244.616 265.609 244.04C266.569 243.464 267.313 242.672 267.841 241.664C268.393 240.656 268.669 239.492 268.669 238.172C268.669 236.852 268.393 235.688 267.841 234.68C267.313 233.648 266.569 232.844 265.609 232.268C264.649 231.692 263.545 231.404 262.297 231.404C261.049 231.404 259.945 231.692 258.985 232.268C258.025 232.844 257.269 233.648 256.717 234.68C256.165 235.688 255.889 236.852 255.889 238.172C255.889 239.492 256.165 240.656 256.717 241.664C257.269 242.672 258.025 243.464 258.985 244.04C259.945 244.616 261.049 244.904 262.297 244.904ZM279.462 248C278.262 248 277.662 247.4 277.662 246.2V230.108C277.662 228.908 278.262 228.308 279.462 228.308C280.662 228.308 281.262 228.908 281.262 230.108V230.792C281.982 229.952 282.858 229.292 283.89 228.812C284.946 228.332 286.086 228.092 287.31 228.092C288.75 228.092 289.818 228.332 290.514 228.812C291.234 229.268 291.51 229.82 291.342 230.468C291.222 230.972 290.982 231.308 290.622 231.476C290.262 231.62 289.842 231.644 289.362 231.548C287.826 231.236 286.446 231.212 285.222 231.476C283.998 231.74 283.026 232.232 282.306 232.952C281.61 233.672 281.262 234.584 281.262 235.688V246.2C281.262 247.4 280.662 248 279.462 248ZM302.656 248.144C300.784 248.144 299.092 247.712 297.58 246.848C296.092 245.96 294.904 244.76 294.016 243.248C293.152 241.736 292.72 240.032 292.72 238.136C292.72 236.24 293.116 234.548 293.908 233.06C294.724 231.548 295.828 230.36 297.22 229.496C298.612 228.608 300.184 228.164 301.936 228.164C303.352 228.164 304.66 228.464 305.86 229.064C307.06 229.64 308.068 230.432 308.884 231.44V221.72C308.884 221.168 309.052 220.724 309.388 220.388C309.748 220.052 310.192 219.884 310.72 219.884C311.272 219.884 311.716 220.052 312.052 220.388C312.388 220.724 312.556 221.168 312.556 221.72V238.136C312.556 240.032 312.112 241.736 311.224 243.248C310.36 244.76 309.184 245.96 307.696 246.848C306.208 247.712 304.528 248.144 302.656 248.144ZM302.656 244.904C303.88 244.904 304.972 244.616 305.932 244.04C306.892 243.44 307.648 242.624 308.2 241.592C308.752 240.56 309.028 239.408 309.028 238.136C309.028 236.84 308.752 235.688 308.2 234.68C307.648 233.672 306.892 232.88 305.932 232.304C304.972 231.704 303.88 231.404 302.656 231.404C301.456 231.404 300.364 231.704 299.38 232.304C298.42 232.88 297.652 233.672 297.076 234.68C296.524 235.688 296.248 236.84 296.248 238.136C296.248 239.408 296.524 240.56 297.076 241.592C297.652 242.624 298.42 243.44 299.38 244.04C300.364 244.616 301.456 244.904 302.656 244.904ZM326.205 248.144C324.525 248.144 322.965 247.892 321.525 247.388C320.109 246.86 319.005 246.2 318.213 245.408C317.853 245.024 317.697 244.592 317.745 244.112C317.817 243.608 318.057 243.2 318.465 242.888C318.945 242.504 319.413 242.348 319.869 242.42C320.349 242.468 320.757 242.672 321.093 243.032C321.501 243.488 322.149 243.92 323.037 244.328C323.949 244.712 324.957 244.904 326.061 244.904C327.453 244.904 328.509 244.676 329.229 244.22C329.973 243.764 330.357 243.176 330.381 242.456C330.405 241.736 330.057 241.112 329.337 240.584C328.641 240.056 327.357 239.624 325.485 239.288C323.061 238.808 321.297 238.088 320.193 237.128C319.113 236.168 318.573 234.992 318.573 233.6C318.573 232.376 318.933 231.368 319.653 230.576C320.373 229.76 321.297 229.16 322.425 228.776C323.553 228.368 324.729 228.164 325.953 228.164C327.537 228.164 328.941 228.416 330.165 228.92C331.389 229.424 332.361 230.12 333.081 231.008C333.417 231.392 333.573 231.8 333.549 232.232C333.525 232.64 333.321 232.988 332.937 233.276C332.553 233.54 332.097 233.624 331.569 233.528C331.041 233.432 330.597 233.216 330.237 232.88C329.637 232.304 328.989 231.908 328.293 231.692C327.597 231.476 326.793 231.368 325.881 231.368C324.825 231.368 323.925 231.548 323.181 231.908C322.461 232.268 322.101 232.796 322.101 233.492C322.101 233.924 322.209 234.32 322.425 234.68C322.665 235.016 323.121 235.328 323.793 235.616C324.465 235.88 325.449 236.144 326.745 236.408C329.457 236.936 331.329 237.692 332.361 238.676C333.417 239.636 333.945 240.824 333.945 242.24C333.945 243.344 333.645 244.34 333.045 245.228C332.469 246.116 331.605 246.824 330.453 247.352C329.325 247.88 327.909 248.144 326.205 248.144Z" fill="#094B7C"/>
</svg>
