<svg width="516" height="90" viewBox="0 0 516 90" fill="none" xmlns="http://www.w3.org/2000/svg">
<rect x="305" y="2" width="84" height="19" rx="9.5" transform="rotate(90 305 2)" fill="#094B7C" fill-opacity="0.75"/>
<rect x="266" y="2" width="84" height="19" rx="9.5" transform="rotate(90 266 2)" fill="#094B7C" fill-opacity="0.75"/>
<rect x="203.218" y="18" width="55" height="19" rx="9.5" transform="rotate(90 203.218 18)" fill="#094B7C" fill-opacity="0.75"/>
<rect x="244.218" y="86" width="46" height="19" rx="9.5" transform="rotate(-180 244.218 86)" fill="#094B7C" fill-opacity="0.75"/>
<rect x="206" y="88.2175" width="36.7696" height="19" rx="9.5" transform="rotate(-135 206 88.2175)" fill="#094B7C" fill-opacity="0.75"/>
<rect x="244.218" y="22" width="46" height="19" rx="9.5" transform="rotate(-180 244.218 22)" fill="#094B7C" fill-opacity="0.75"/>
<rect x="180.218" y="26" width="36.7696" height="19" rx="9.5" transform="rotate(-45 180.218 26)" fill="#094B7C" fill-opacity="0.75"/>
<rect x="417" y="2" width="84" height="19" rx="9.5" transform="rotate(90 417 2)" fill="#094B7C" fill-opacity="0.75"/>
<rect x="493" y="2" width="84" height="19" rx="9.5" transform="rotate(90 493 2)" fill="#094B7C" fill-opacity="0.75"/>
<rect x="353.562" y="36.0981" width="60.2154" height="19" rx="9.5" transform="rotate(120 353.562 36.0981)" fill="#094B7C" fill-opacity="0.75"/>
<rect x="361" y="68" width="35" height="21" rx="10.5" transform="rotate(-180 361 68)" fill="#094B7C" fill-opacity="0.75"/>
<rect x="305" y="57" width="39" height="21" rx="10.5" transform="rotate(-180 305 57)" fill="#094B7C" fill-opacity="0.75"/>
<rect x="353.591" y="1.04007" width="89.7272" height="19" rx="9.5" transform="rotate(60 353.591 1.04007)" fill="#094B7C" fill-opacity="0.75"/>
<rect x="440.783" y="89.2175" width="59.0894" height="19" rx="9.5" transform="rotate(-135 440.783 89.2175)" fill="#094B7C" fill-opacity="0.75"/>
<rect x="446.11" y="21" width="47.1099" height="19" rx="9.5" transform="rotate(180 446.11 21)" fill="#094B7C" fill-opacity="0.75"/>
<rect x="451" y="4" width="49" height="19" rx="9.5" transform="rotate(90 451 4)" fill="#094B7C" fill-opacity="0.75"/>
<rect x="446" y="55" width="46" height="19" rx="9.5" transform="rotate(-180 446 55)" fill="#094B7C" fill-opacity="0.75"/>
<rect x="515.355" y="22" width="62.3553" height="19" rx="9.5" transform="rotate(-180 515.355 22)" fill="#094B7C" fill-opacity="0.75"/>
<rect x="23" y="3.99997" width="84" height="19" rx="9.5" transform="rotate(90 23 3.99997)" fill="#094B7C" fill-opacity="0.75"/>
<rect x="82" y="3.99997" width="84" height="19" rx="9.5" transform="rotate(90 82 3.99997)" fill="#094B7C" fill-opacity="0.75"/>
<rect x="131" y="34" width="54" height="19" rx="9.5" transform="rotate(90 131 34)" fill="#094B7C" fill-opacity="0.75"/>
<rect x="85.6188" y="13.435" width="62.3553" height="19" rx="9.5" transform="rotate(135 85.6188 13.435)" fill="#094B7C" fill-opacity="0.75"/>
<rect x="28.2825" y="41.7175" width="39.9975" height="19" rx="9.5" transform="rotate(-135 28.2825 41.7175)" fill="#094B7C" fill-opacity="0.75"/>
<rect x="119.218" y="54.6525" width="52.6335" height="19" rx="9.5" transform="rotate(-135 119.218 54.6525)" fill="#094B7C" fill-opacity="0.75"/>
<rect x="125.609" y="27.6088" width="33.3878" height="19" rx="9.5" transform="rotate(-45 125.609 27.6088)" fill="#094B7C" fill-opacity="0.75"/>
</svg>
